<svg width="72" height="25" viewBox="0 0 72 25" fill="none" xmlns="http://www.w3.org/2000/svg">
<path d="M66.9039 16.5851C69.25 16.5851 71.1518 14.6936 71.1518 12.3604C71.1518 10.0272 69.25 8.13574 66.9039 8.13574C64.5579 8.13574 62.656 10.0272 62.656 12.3604C62.656 14.6936 64.5579 16.5851 66.9039 16.5851Z" fill="#FF0600"/>
<path d="M3.13246 23.4935V16.9936C3.75895 17.8028 5.09025 18.4815 6.96972 18.4815C10.7809 18.4815 13.4957 15.7667 13.4957 11.7206C13.4957 7.70066 10.7809 5.01196 6.8131 5.01196C3.00194 5.01196 0 7.51793 0 11.7206V23.4935H3.13246ZM10.3632 11.7468C10.3632 14.1744 8.92751 15.6101 6.73479 15.6101C4.56817 15.6101 3.13246 14.1744 3.13246 11.7468C3.13246 9.3191 4.56817 7.88339 6.73479 7.88339C8.92751 7.88339 10.3632 9.3191 10.3632 11.7468Z" fill="#181818"/>
<path d="M14.6703 10.9636V18.2727H17.8028V10.9636C17.8028 8.87531 19.0558 7.85726 21.1441 7.85726V4.98584C17.1763 4.98584 14.6703 6.99584 14.6703 10.9636Z" fill="#181818"/>
<path d="M28.0355 5.03802C24.0155 5.03802 21.3007 7.72672 21.3007 11.7467C21.3007 15.7928 24.0155 18.5076 27.8006 18.5076C29.7062 18.5076 31.0375 17.8289 31.6639 17.0197V18.2727H34.7964V11.7989C34.7964 7.75282 32.0816 5.03802 28.0355 5.03802ZM31.6639 11.7728C31.6639 14.2005 30.2282 15.6362 28.0616 15.6362C25.8689 15.6362 24.4332 14.2005 24.4332 11.7728C24.4332 9.34516 25.8689 7.90945 28.0616 7.90945C30.2282 7.90945 31.6639 9.34516 31.6639 11.7728Z" fill="#181818"/>
<path d="M38.9208 17.9333C39.5473 19.6823 38.1377 21.8489 36.3888 21.8489V24.7203C40.7742 24.7203 41.5312 21.3268 42.6015 18.2727L47.2219 5.22076H43.9589L40.8264 14.2527L37.694 5.22076H34.431L38.9208 17.9333Z" fill="#181818"/>
<path d="M48.0049 18.2727H51.1374L54.0871 14.2788L56.9586 18.2727H60.6653L55.9405 11.7467L60.7697 5.22077H57.0369L51.1374 13.2346V0H48.0049V18.2727Z" fill="#181818"/>
</svg>
