<svg width="15" height="19" viewBox="0 0 15 19" fill="none" xmlns="http://www.w3.org/2000/svg">
<path d="M6.9965 18.3845C6.55133 18.3845 6.17142 18.2263 5.85675 17.91C5.54192 17.5937 5.3845 17.2134 5.3845 16.7693H8.6155C8.6155 17.2168 8.45692 17.5978 8.13975 17.9125C7.82275 18.2272 7.44167 18.3845 6.9965 18.3845ZM0.5 15.7693C0.358333 15.7693 0.239583 15.7213 0.14375 15.6253C0.0479167 15.5293 0 15.4103 0 15.2685C0 15.1267 0.0479167 15.008 0.14375 14.9125C0.239583 14.817 0.358333 14.7693 0.5 14.7693H1.6155V6.84625C1.6155 5.53975 2.02892 4.39067 2.85575 3.399C3.68275 2.40733 4.73083 1.78975 6 1.54625V1C6 0.722167 6.097 0.486083 6.291 0.29175C6.485 0.0972496 6.72058 0 6.99775 0C7.27492 0 7.51125 0.0972496 7.70675 0.29175C7.90225 0.486083 8 0.722167 8 1V1.075C7.85517 1.30067 7.72825 1.52825 7.61925 1.75775C7.51025 1.98725 7.42567 2.2315 7.3655 2.4905C7.3045 2.48267 7.24508 2.47592 7.18725 2.47025C7.12942 2.46442 7.067 2.4615 7 2.4615C5.78467 2.4615 4.75008 2.88842 3.89625 3.74225C3.04242 4.59608 2.6155 5.63075 2.6155 6.84625V14.7693H11.3845V8.6905C11.5435 8.72117 11.7073 8.74517 11.876 8.7625C12.0445 8.77983 12.214 8.78208 12.3845 8.76925V14.7693H13.5C13.6417 14.7693 13.7604 14.8173 13.8562 14.9133C13.9521 15.0091 14 15.128 14 15.27C14 15.4118 13.9521 15.5305 13.8562 15.626C13.7604 15.7215 13.6417 15.7693 13.5 15.7693H0.5ZM11.9637 6.40375C11.2699 6.40375 10.6794 6.16092 10.1923 5.67525C9.70508 5.18958 9.4615 4.59983 9.4615 3.906C9.4615 3.21233 9.70433 2.62183 10.19 2.1345C10.6757 1.64733 11.2654 1.40375 11.9593 1.40375C12.6531 1.40375 13.2436 1.64658 13.7308 2.13225C14.2179 2.61792 14.4615 3.20767 14.4615 3.9015C14.4615 4.59533 14.2187 5.18583 13.733 5.673C13.2473 6.16017 12.6576 6.40375 11.9637 6.40375Z" fill="#181818"/>
</svg>
