<svg width="7" height="17" viewBox="0 0 7 17" fill="none" xmlns="http://www.w3.org/2000/svg">
<path d="M3.03069 10.784L0.140604 7.78054C0.100843 7.73921 0.0674686 7.69107 0.0404811 7.6361C0.0134937 7.58131 0 7.5226 0 7.45996C0 7.3345 0.0399415 7.22652 0.119824 7.13603C0.199707 7.04534 0.305048 7 0.435847 7H6.56415C6.69495 7 6.80029 7.04628 6.88018 7.13883C6.96006 7.23138 7 7.33936 7 7.46277C7 7.49362 6.95295 7.59973 6.85886 7.7811L3.96904 10.784C3.90265 10.8532 3.83096 10.9065 3.75395 10.9439C3.67695 10.9813 3.5923 11 3.5 11C3.4077 11 3.32305 10.9813 3.24605 10.9439C3.16904 10.9065 3.09726 10.8532 3.03069 10.784Z" fill="#181818"/>
</svg>
