<svg width="16" height="16" viewBox="0 0 16 16" fill="none" xmlns="http://www.w3.org/2000/svg">
<g clip-path="url(#clip0_86_251)">
<mask id="mask0_86_251" style="mask-type:alpha" maskUnits="userSpaceOnUse" x="0" y="0" width="16" height="16">
<rect width="16" height="16" fill="#D9D9D9"/>
</mask>
<g mask="url(#mask0_86_251)">
<path d="M5.37516 12.0212L8.00016 10.4379L10.6252 12.0421L9.93766 9.04205L12.2502 7.04205L9.2085 6.77122L8.00016 3.93789L6.79183 6.75039L3.75016 7.02122L6.06266 9.04205L5.37516 12.0212ZM8.00016 11.4187L4.97454 13.2456C4.88579 13.2893 4.8035 13.307 4.72766 13.2985C4.65183 13.2899 4.57815 13.2637 4.50662 13.22C4.43495 13.1761 4.38044 13.1133 4.34308 13.0316C4.30572 12.95 4.30252 12.8616 4.33349 12.7664L5.13808 9.34164L2.4762 7.03247C2.40134 6.9715 2.3519 6.89858 2.32787 6.81372C2.30384 6.72872 2.30891 6.64726 2.34308 6.56935C2.37724 6.49129 2.42322 6.42768 2.48099 6.37851C2.53863 6.32949 2.61662 6.29636 2.71495 6.27914L6.22766 5.9731L7.59787 2.72955C7.63523 2.63761 7.68947 2.57136 7.76058 2.5308C7.83169 2.49025 7.91155 2.46997 8.00016 2.46997C8.08877 2.46997 8.16863 2.49025 8.23975 2.5308C8.31086 2.57136 8.36509 2.63761 8.40245 2.72955L9.77266 5.9731L13.2854 6.27914C13.3837 6.29636 13.4617 6.32949 13.5193 6.37851C13.5771 6.42768 13.6231 6.49129 13.6572 6.56935C13.6914 6.64726 13.6965 6.72872 13.6725 6.81372C13.6484 6.89858 13.599 6.9715 13.5241 7.03247L10.8622 9.34164L11.6668 12.7664C11.6978 12.8616 11.6946 12.95 11.6572 13.0316C11.6199 13.1133 11.5654 13.1761 11.4937 13.22C11.4222 13.2637 11.3485 13.2899 11.2727 13.2985C11.1968 13.307 11.1145 13.2893 11.0258 13.2456L8.00016 11.4187Z" fill="#1C1B1F"/>
</g>
</g>
<defs>
<clipPath id="clip0_86_251">
<rect width="16" height="16" fill="white"/>
</clipPath>
</defs>
</svg>
